
<svg xmlns="http://www.w3.org/2000/svg" version="1.1" width="500px" height="500px" style="shape-rendering:geometricPrecision; text-rendering:geometricPrecision; image-rendering:optimizeQuality; fill-rule:evenodd; clip-rule:evenodd" xmlns:xlink="http://www.w3.org/1999/xlink">
<g><path style="opacity:1" fill="#fefefe" d="M -0.5,-0.5 C 166.167,-0.5 332.833,-0.5 499.5,-0.5C 499.5,166.167 499.5,332.833 499.5,499.5C 332.833,499.5 166.167,499.5 -0.5,499.5C -0.5,332.833 -0.5,166.167 -0.5,-0.5 Z"/></g>
<g><path style="opacity:1" fill="#040404" d="M 262.5,149.5 C 265.253,148.978 267.92,148.144 270.5,147C 267.636,146.807 264.97,147.307 262.5,148.5C 240.937,153.444 220.27,160.944 200.5,171C 190.673,176.08 181.006,181.413 171.5,187C 139.373,220.59 128.873,260.09 140,305.5C 143.077,315.652 147.244,325.319 152.5,334.5C 153.723,335.614 155.056,335.781 156.5,335C 161.7,330.108 165.534,324.275 168,317.5C 179.259,292.049 189.926,266.382 200,240.5C 205,237.167 210,233.833 215,230.5C 228.189,265.204 242.189,299.538 257,333.5C 259.068,335.562 261.568,336.728 264.5,337C 250.833,337.667 237.167,337.667 223.5,337C 234.006,336.83 237.839,331.663 235,321.5C 233.931,318.792 232.764,316.125 231.5,313.5C 211.845,312.5 192.178,312.167 172.5,312.5C 171.633,315.908 170.467,319.242 169,322.5C 166.548,331.108 169.715,335.942 178.5,337C 170.5,337.333 162.5,337.667 154.5,338C 186.961,383.547 230.961,401.547 286.5,392C 343.173,375.992 375.673,338.826 384,280.5C 384.5,273.508 384.666,266.508 384.5,259.5C 384.5,258.833 384.833,258.5 385.5,258.5C 388.435,317.15 364.435,360.65 313.5,389C 259.749,412.283 210.415,405.283 165.5,368C 121.546,323.144 111.046,271.311 134,212.5C 140.6,198.957 148.934,186.623 159,175.5C 176.501,137.807 206.001,116.307 247.5,111C 284.059,108.521 316.726,118.521 345.5,141C 346.451,141.718 346.617,142.551 346,143.5C 336.886,144.316 328.386,147.149 320.5,152C 304.878,163.954 289.544,176.287 274.5,189C 240.882,211.605 204.215,218.272 164.5,209C 161.808,206.368 162.141,204.034 165.5,202C 194.885,179.303 227.218,161.803 262.5,149.5 Z"/></g>
<g><path style="opacity:1" fill="#757575" d="M 262.5,149.5 C 262.5,149.167 262.5,148.833 262.5,148.5C 264.97,147.307 267.636,146.807 270.5,147C 267.92,148.144 265.253,148.978 262.5,149.5 Z"/></g>
<g><path style="opacity:1" fill="#b9b9b9" d="M 269.5,234.5 C 282.339,233.175 295.339,233.175 308.5,234.5C 307.675,235.386 306.675,235.719 305.5,235.5C 293.678,234.505 281.678,234.172 269.5,234.5 Z"/></g>
<g><path style="opacity:1" fill="#050505" d="M 269.5,234.5 C 281.678,234.172 293.678,234.505 305.5,235.5C 301.348,235.403 298.348,237.069 296.5,240.5C 295.502,271.996 295.168,303.662 295.5,335.5C 305.015,335.827 314.348,335.494 323.5,334.5C 329.385,333.725 334.718,331.559 339.5,328C 345.096,322.407 349.93,316.24 354,309.5C 351.997,319.85 349.497,330.184 346.5,340.5C 345.3,339.469 343.966,338.635 342.5,338C 318.167,337.667 293.833,337.333 269.5,337C 273.831,335.592 277.331,333.092 280,329.5C 280.667,299.5 280.667,269.5 280,239.5C 276.927,236.763 273.427,235.096 269.5,234.5 Z"/></g>
<g><path style="opacity:1" fill="#7e7e7e" d="M 382.5,244.5 C 381.067,242.086 380.567,239.419 381,236.5C 382.079,239.063 382.579,241.729 382.5,244.5 Z"/></g>
<g><path style="opacity:1" fill="#bebebe" d="M 296.5,240.5 C 296.5,271.833 296.5,303.167 296.5,334.5C 305.5,334.5 314.5,334.5 323.5,334.5C 314.348,335.494 305.015,335.827 295.5,335.5C 295.168,303.662 295.502,271.996 296.5,240.5 Z"/></g>
<g><path style="opacity:1" fill="#fbfbfb" d="M 229.5,308.5 C 211.341,309.497 193.008,309.83 174.5,309.5C 183.896,287.488 193.396,265.488 203,243.5C 212.381,264.931 221.214,286.597 229.5,308.5 Z"/></g>
<g><path style="opacity:1" fill="#747474" d="M 382.5,244.5 C 384.13,248.911 385.13,253.578 385.5,258.5C 384.833,258.5 384.5,258.833 384.5,259.5C 383.111,254.731 382.444,249.731 382.5,244.5 Z"/></g>
<g><path style="opacity:1" fill="#474747" d="M 229.5,308.5 C 230.043,308.56 230.376,308.893 230.5,309.5C 211.671,310.828 193.004,310.828 174.5,309.5C 193.008,309.83 211.341,309.497 229.5,308.5 Z"/></g>
</svg>
