<?xml version="1.0" encoding="utf-8"?>
<svg viewBox="76.5791 49.6081 285.1168 176.7143" width="285.1168" height="176.7143" xmlns="http://www.w3.org/2000/svg">
  <g transform="matrix(0.10000000149011612, 0, 0, -0.10000000149011612, 12.195922851562496, 242.38639831542966)" fill="#000000" stroke="none">
    <path d="M1164 1914 c-17 -8 -36 -26 -43 -40 -14 -31 -16 -490 -2 -498 5 -4 21 -2 35 4 26 9 26 11 26 110 0 72 4 102 13 105 6 2 161 8 342 13 l330 9 160 51 c88 29 176 52 195 52 19 0 109 -26 200 -57 l165 -57 330 -5 330 -6 3 -102 3 -101 28 -10 c16 -6 32 -8 35 -5 3 4 6 114 6 245 l0 238 -29 32 -29 33 -1034 2 c-915 2 -1037 1 -1064 -13z m1743 -106 c7 -6 13 -25 13 -44 0 -35 -28 -64 -62 -64 -28 0 -58 37 -58 69 0 53 64 75 107 39z m133 0 c16 -10 24 -10 40 0 29 18 46 5 24 -19 -15 -17 -15 -23 -4 -44 17 -32 6 -43 -20 -20 -19 17 -21 17 -40 0 -14 -13 -24 -15 -31 -8 -7 7 -5 14 6 23 19 16 19 34 0 50 -8 7 -12 16 -9 21 7 12 10 11 34 -3z" style="fill: rgb(107, 77, 230);"/>
    <path d="M2075 1560 c-175 -56 -460 -145 -790 -248 -361 -112 -345 -106 -345 -135 0 -27 -19 -19 345 -152 99 -36 195 -72 213 -80 31 -14 33 -14 44 11 21 45 127 87 353 141 131 31 383 43 512 24 206 -30 455 -113 485 -160 7 -12 17 -21 22 -21 10 0 413 148 516 189 55 22 65 30 65 51 0 23 -10 27 -135 67 -74 23 -245 76 -380 118 -135 43 -272 85 -305 95 -33 10 -147 46 -253 79 -106 34 -200 61 -210 60 -9 0 -71 -18 -137 -39z" style="fill: rgb(107, 77, 230);"/>
    <path d="M860 895 c0 -107 4 -195 8 -195 5 0 16 8 25 18 14 16 17 44 17 183 0 165 -5 189 -37 189 -10 0 -13 -42 -13 -195z" style="fill: rgb(107, 77, 230);"/>
    <path d="M2100 1074 c-165 -16 -455 -92 -525 -138 -14 -9 -27 -30 -30 -48 -3 -18 -5 -138 -3 -266 l3 -234 28 -24 28 -24 619 0 619 0 28 24 28 24 3 244 c3 272 1 282 -62 311 -96 46 -239 89 -371 111 -94 17 -287 27 -365 20z" style="fill: rgb(107, 77, 230);"/>
    <path d="M1110 610 l0 -380 29 -32 29 -33 1034 -3 c942 -3 1036 -2 1064 13 18 9 37 28 43 41 12 26 17 755 5 767 -3 3 -19 1 -35 -5 l-29 -10 0 -359 c0 -345 -1 -359 -19 -369 -14 -7 -344 -10 -1020 -10 -891 0 -1002 2 -1015 16 -14 13 -16 63 -16 369 0 195 -3 356 -7 358 -5 2 -20 7 -35 11 l-28 6 0 -380z" style="fill: rgb(107, 77, 230);"/>
    <path d="M761 558 c-148 -89 -151 -97 -36 -98 39 0 75 -4 81 -8 6 -4 32 -38 57 -77 l47 -70 0 168 c0 92 -3 167 -7 166 -5 0 -68 -37 -142 -81z" style="fill: rgb(107, 77, 230);"/>
  </g>
</svg>